solid OpenSCAD_Model
  facet normal 1 -0 0
    outer loop
      vertex 56 51 15.201
      vertex 56 64 14.9
      vertex 56 64 15.201
    endloop
  endfacet
  facet normal 1 0 0
    outer loop
      vertex 56 64 14.9
      vertex 56 51 15.201
      vertex 56 51 14.9
    endloop
  endfacet
  facet normal 0 0 1
    outer loop
      vertex 56 64 15.201
      vertex 55 63 15.201
      vertex 56 51 15.201
    endloop
  endfacet
  facet normal 0 0 1
    outer loop
      vertex 56 64 15.201
      vertex 22 63 15.201
      vertex 55 63 15.201
    endloop
  endfacet
  facet normal 0 0 1
    outer loop
      vertex 22 63 15.201
      vertex 21 64 15.201
      vertex 22 52 15.201
    endloop
  endfacet
  facet normal -0 0 1
    outer loop
      vertex 21 64 15.201
      vertex 22 63 15.201
      vertex 56 64 15.201
    endloop
  endfacet
  facet normal -0 0 1
    outer loop
      vertex 55 52 15.201
      vertex 56 51 15.201
      vertex 55 63 15.201
    endloop
  endfacet
  facet normal -0 0 1
    outer loop
      vertex 22 52 15.201
      vertex 56 51 15.201
      vertex 55 52 15.201
    endloop
  endfacet
  facet normal 0 0 1
    outer loop
      vertex 22 52 15.201
      vertex 21 51 15.201
      vertex 56 51 15.201
    endloop
  endfacet
  facet normal 0 0 1
    outer loop
      vertex 21 51 15.201
      vertex 22 52 15.201
      vertex 21 64 15.201
    endloop
  endfacet
  facet normal 0 0 -1
    outer loop
      vertex 21 51 14.9
      vertex 56 64 14.9
      vertex 56 51 14.9
    endloop
  endfacet
  facet normal -0 0 -1
    outer loop
      vertex 56 64 14.9
      vertex 21 51 14.9
      vertex 21 64 14.9
    endloop
  endfacet
  facet normal -1 0 0
    outer loop
      vertex 21 51 14.9
      vertex 21 64 15.201
      vertex 21 64 14.9
    endloop
  endfacet
  facet normal -1 -0 0
    outer loop
      vertex 21 64 15.201
      vertex 21 51 14.9
      vertex 21 51 15.201
    endloop
  endfacet
  facet normal 0 1 -0
    outer loop
      vertex 56 64 14.9
      vertex 21 64 15.201
      vertex 56 64 15.201
    endloop
  endfacet
  facet normal 0 1 0
    outer loop
      vertex 21 64 15.201
      vertex 56 64 14.9
      vertex 21 64 14.9
    endloop
  endfacet
  facet normal 0 -1 0
    outer loop
      vertex 21 51 14.9
      vertex 56 51 15.201
      vertex 21 51 15.201
    endloop
  endfacet
  facet normal 0 -1 -0
    outer loop
      vertex 56 51 15.201
      vertex 21 51 14.9
      vertex 56 51 14.9
    endloop
  endfacet
  facet normal 1 -0 0
    outer loop
      vertex 55 52 16.001
      vertex 55 63 15.201
      vertex 55 63 16.001
    endloop
  endfacet
  facet normal 1 0 0
    outer loop
      vertex 55 63 15.201
      vertex 55 52 16.001
      vertex 55 52 15.201
    endloop
  endfacet
  facet normal -0 0 1
    outer loop
      vertex 22 63 16.001
      vertex 55 52 16.001
      vertex 55 63 16.001
    endloop
  endfacet
  facet normal 0 0 1
    outer loop
      vertex 55 52 16.001
      vertex 22 63 16.001
      vertex 22 52 16.001
    endloop
  endfacet
  facet normal -1 0 0
    outer loop
      vertex 22 52 15.201
      vertex 22 63 16.001
      vertex 22 63 15.201
    endloop
  endfacet
  facet normal -1 -0 0
    outer loop
      vertex 22 63 16.001
      vertex 22 52 15.201
      vertex 22 52 16.001
    endloop
  endfacet
  facet normal 0 1 -0
    outer loop
      vertex 55 63 15.201
      vertex 22 63 16.001
      vertex 55 63 16.001
    endloop
  endfacet
  facet normal 0 1 0
    outer loop
      vertex 22 63 16.001
      vertex 55 63 15.201
      vertex 22 63 15.201
    endloop
  endfacet
  facet normal 0 -1 0
    outer loop
      vertex 22 52 15.201
      vertex 55 52 16.001
      vertex 22 52 16.001
    endloop
  endfacet
  facet normal 0 -1 -0
    outer loop
      vertex 55 52 16.001
      vertex 22 52 15.201
      vertex 55 52 15.201
    endloop
  endfacet
endsolid OpenSCAD_Model
